<?xml version="1.0" standalone="no"?>
<!DOCTYPE svg PUBLIC "-//W3C//DTD SVG 1.1//EN"
  "http://www.w3.org/Graphics/SVG/1.1/DTD/svg11.dtd">
<svg width="144.7480010986328mm" height="114.74800109863278mm" viewBox="-76 -50.999999999999986 144.7480010986328 114.74800109863278" xmlns="http://www.w3.org/2000/svg" version="1.1">
	<title>svgOutput</title>
	<desc>made with tinkercad</desc>
<path d="M -75 -49.999999999999986 L -74 -49.999999999999986 L -69 -49.999999999999986 L -63.625 -49.999999999999986 L -58.625 -49.999999999999986 L -46.375 -49.999999999999986 L -41.375 -49.999999999999986 L -36 -49.999999999999986 L -31 -49.999999999999986 L -30 -49.999999999999986 L -30 38.99999999999999 L -30 39.99999999999999 L -36 39.99999999999999 L -74 39.99999999999999 L -75 39.99999999999999 L -75 -49.999999999999986 M 27.253000259399414 62.7480010986328 L 27.253000259399414 62.70000076293944 L 27.253000259399414 62.528095245361314 L 27.253000259399414 62.491001129150376 L 27.369625091552734 62.607624053955064 L 27.408000946044922 62.64599990844725 L 27.48904037475586 62.687335968017564 L 27.51386833190918 62.70000076293944 L 27.607973098754883 62.7480010986328 L 27.510000228881836 62.7480010986328 L 27.286590576171875 62.7480010986328 L 27.253000259399414 62.7480010986328 M 29.092025756835938 62.7480010986328 L 29.186132431030273 62.70000076293944 L 29.29199981689453 62.64599990844725 L 29.478763580322266 62.45923614501952 L 29.607624053955078 62.330375671386705 L 29.645999908447266 62.29199981689452 L 29.687335968017578 62.21096038818358 L 29.700000762939453 62.186130523681626 L 29.874000549316406 61.84500122070311 L 29.938636779785156 61.43999862670897 L 29.952999114990234 61.34999847412108 L 29.874000549316406 60.854999542236314 L 29.700000762939453 60.5138702392578 L 29.650514602661133 60.41685104370116 L 29.65007972717285 60.41600036621092 L 29.645999908447266 60.40800094604491 L 29.29199981689453 60.05400085449217 L 29.186132431030273 59.999999999999986 L 28.844999313354492 59.82600021362303 L 28.350000381469727 59.7480010986328 L 27.854999542236328 59.82600021362303 L 27.51386833190918 59.999999999999986 L 27.408000946044922 60.05400085449217 L 27.253000259399414 60.20899963378905 L 27.253000259399414 60.13306045532225 L 27.253000259399414 59.999999999999986 L 27.253000259399414 59.92086029052733 L 27.253000259399414 59.7480010986328 L 27.253000259399414 43.63999938964843 L 27.253000259399414 6.866000175476072 L 27.253000259399414 -19.747999191284176 L 27.253000259399414 -20.017854690551754 L 27.253000259399414 -20.20899963378906 L 27.408000946044922 -20.054000854492184 L 27.854999542236328 -19.826000213623043 L 28.350000381469727 -19.747999191284176 L 28.844999313354492 -19.826000213623043 L 29.29199981689453 -20.054000854492184 L 29.645999908447266 -20.40800094604492 L 29.682723999023438 -20.479999542236325 L 29.700000762939453 -20.513868331909176 L 29.874000549316406 -20.854999542236325 L 29.952999114990234 -21.350000381469723 L 29.874000549316406 -21.84499931335449 L 29.700000762939453 -22.18613243103027 L 29.645999908447266 -22.291999816894528 L 29.29199981689453 -22.645999908447262 L 29.092025756835938 -22.747999191284176 L 29.190000534057617 -22.747999191284176 L 29.413410186767578 -22.747999191284176 L 29.700000762939453 -22.747999191284176 L 29.72988510131836 -22.747999191284176 L 29.952999114990234 -22.747999191284176 L 31.99799919128418 -22.747999191284176 L 35 -22.747999191284176 L 40 -22.747999191284176 L 40.74800109863281 -22.747999191284176 L 42.65299987792969 -22.747999191284176 L 46.12300109863281 -22.747999191284176 L 53.12799835205078 -22.747999191284176 L 55 -22.747999191284176 L 56.49800109863281 -22.747999191284176 L 58.40299987792969 -22.747999191284176 L 59.51300048828125 -22.747999191284176 L 64.51200103759766 -22.747999191284176 L 65.0479965209961 -22.747999191284176 L 65.30000305175781 -22.747999191284176 L 65.36550903320312 -22.747999191284176 L 65.90797424316406 -22.747999191284176 L 65.8138656616211 -22.70000076293945 L 65.71685028076172 -22.65051460266113 L 65.70800018310547 -22.645999908447262 L 65.62556457519531 -22.563562393188473 L 65.58999633789062 -22.527999877929684 L 65.53600311279297 -22.47400093078613 L 65.35399627685547 -22.291999816894528 L 65.30000305175781 -22.18613243103027 L 65.1259994506836 -21.84499931335449 L 65.0479965209961 -21.350000381469723 L 65.1259994506836 -20.854999542236325 L 65.30000305175781 -20.513868331909176 L 65.31727600097656 -20.479999542236325 L 65.35399627685547 -20.40800094604492 L 65.53600311279297 -20.225999832153317 L 65.70800018310547 -20.054000854492184 L 65.8138656616211 -19.999999999999996 L 66.15499877929688 -19.826000213623043 L 66.6500015258789 -19.747999191284176 L 67.1449966430664 -19.826000213623043 L 67.48612976074219 -19.999999999999996 L 67.58314514160156 -20.049484252929684 L 67.58399963378906 -20.049919128417965 L 67.59200286865234 -20.054000854492184 L 67.74800109863281 -20.209999084472653 L 67.74800109863281 -20.133569717407223 L 67.74800109863281 -19.999999999999996 L 67.74800109863281 -19.921018600463864 L 67.74800109863281 -19.747999191284176 L 67.74800109863281 47.36100006103515 L 67.74800109863281 59.7480010986328 L 67.74800109863281 59.999999999999986 L 67.74800109863281 60.175937652587876 L 67.74800109863281 60.20999908447264 L 67.63037872314453 60.09237670898436 L 67.59200286865234 60.05400085449217 L 67.58399963378906 60.049919128417955 L 67.48612976074219 59.999999999999986 L 67.1449966430664 59.82600021362303 L 66.6500015258789 59.7480010986328 L 66.15499877929688 59.82600021362303 L 65.8138656616211 59.999999999999986 L 65.71685028076172 60.04948425292967 L 65.70800018310547 60.05400085449217 L 65.62556457519531 60.13643646240233 L 65.53600311279297 60.22600173950194 L 65.35399627685547 60.40800094604491 L 65.30000305175781 60.5138702392578 L 65.1259994506836 60.854999542236314 L 65.0479965209961 61.34999847412108 L 65.06217956542969 61.43999862670897 L 65.1259994506836 61.84500122070311 L 65.30000305175781 62.186130523681626 L 65.3494873046875 62.28314971923827 L 65.35399627685547 62.29199981689452 L 65.43643951416016 62.37443923950194 L 65.53600311279297 62.473999023437486 L 65.70800018310547 62.64599990844725 L 65.8138656616211 62.70000076293944 L 65.90797424316406 62.7480010986328 L 65.80999755859375 62.7480010986328 L 65.58659362792969 62.7480010986328 L 65.30000305175781 62.7480010986328 L 48.638999938964844 62.7480010986328 L 48.6870002746582 62.70000076293944 L 54.000999450683594 57.38600158691405 L 55 56.38700103759764 L 59.51300048828125 51.87400054931639 L 64.00299835205078 47.3839988708496 L 65.0479965209961 46.33900070190429 L 65.30000305175781 46.0870018005371 L 65.88700103759766 45.49999999999999 L 65.30000305175781 44.91299819946288 L 65.0479965209961 44.660999298095696 L 64.00299835205078 43.61600112915038 L 59.51300048828125 39.12599945068359 L 55.38999938964844 35.002998352050774 L 59.51300048828125 35.002998352050774 L 64.00299835205078 35.002998352050774 L 64.00299835205078 24.997999191284173 L 59.51300048828125 24.997999191284173 L 55 24.997999191284173 L 54.000999450683594 24.997999191284173 L 54.000999450683594 29.997999191284173 L 54.000999450683594 32.76800155639648 L 54.000999450683594 33.61399841308593 L 53.154998779296875 32.76800155639648 L 50.3849983215332 29.997999191284173 L 47.5 27.11300086975097 L 41.999000549316406 32.61399841308593 L 41.999000549316406 24.997999191284173 L 35 24.997999191284173 L 31.99799919128418 24.997999191284173 L 31.99799919128418 35.002998352050774 L 35 35.002998352050774 L 39.61000061035156 35.002998352050774 L 35 39.61299896240234 L 31.99799919128418 42.61500167846679 L 29.952999114990234 44.6599998474121 L 29.700000762939453 44.91299819946288 L 29.113000869750977 45.49999999999999 L 29.700000762939453 46.0870018005371 L 29.952999114990234 46.34000015258788 L 31.99799919128418 48.38499832153319 L 35 51.38700103759764 L 41.999000549316406 58.38600158691405 L 46.3129997253418 62.70000076293944 L 46.361000061035156 62.7480010986328 L 29.952999114990234 62.7480010986328 L 29.634492874145508 62.7480010986328 L 29.092025756835938 62.7480010986328 M 27.253000259399414 -22.490999221801754 L 27.253000259399414 -22.566940307617184 L 27.253000259399414 -22.747999191284176 L 27.607973098754883 -22.747999191284176 L 27.408000946044922 -22.645999908447262 L 27.253000259399414 -22.490999221801754 M 67.39202880859375 62.7480010986328 L 67.48612976074219 62.70000076293944 L 67.56793212890625 62.65827560424803 L 67.58399963378906 62.65008163452147 L 67.59200286865234 62.64599990844725 L 67.74800109863281 62.49000167846678 L 67.74800109863281 62.56642913818358 L 67.74800109863281 62.70000076293944 L 67.74800109863281 62.7480010986328 L 67.39202880859375 62.7480010986328 M 67.74800109863281 -22.747999191284176 L 67.74800109863281 -22.70000076293945 L 67.74800109863281 -22.680183410644528 L 67.74800109863281 -22.527999877929684 L 67.74800109863281 -22.52406311035156 L 67.74800109863281 -22.48999977111816 L 67.70999908447266 -22.527999877929684 L 67.59200286865234 -22.645999908447262 L 67.58399963378906 -22.650079727172848 L 67.48612976074219 -22.70000076293945 L 67.39202880859375 -22.747999191284176 L 67.48999786376953 -22.747999191284176 L 67.71340942382812 -22.747999191284176 L 67.74800109863281 -22.747999191284176 M 42.47100067138672 -18.389999389648434 L 42.49231719970703 -18.431999206542965 L 42.60599899291992 -18.656000137329098 L 42.65299987792969 -18.95000076293945 L 42.60599899291992 -19.24399948120117 L 42.47100067138672 -19.510000228881832 L 42.2599983215332 -19.721000671386715 L 41.99399948120117 -19.85600090026855 L 41.70000076293945 -19.902999877929684 L 41.40599822998047 -19.85600090026855 L 41.13999938964844 -19.721000671386715 L 40.92900085449219 -19.510000228881832 L 40.79399871826172 -19.24399948120117 L 40.74800109863281 -18.95000076293945 L 40.79399871826172 -18.656000137329098 L 40.907684326171875 -18.431999206542965 L 40.92900085449219 -18.389999389648434 L 41.13999938964844 -18.179000854492184 L 41.40599822998047 -18.044000625610348 L 41.70000076293945 -17.997999191284176 L 41.99399948120117 -18.044000625610348 L 42.2599983215332 -18.179000854492184 L 42.47100067138672 -18.389999389648434 M 36.3650016784668 20.17600059509277 L 36.21027755737305 20.479999542236325 L 36.16600036621094 20.5669994354248 L 36.097999572753906 20.999999999999996 L 36.16600036621094 21.43300056457519 L 36.3650016784668 21.823999404907223 L 36.67599868774414 22.135000228881832 L 37.06700134277344 22.33399963378906 L 37.5 22.402999877929684 L 37.93299865722656 22.33399963378906 L 38.32400131225586 22.135000228881832 L 38.6349983215332 21.823999404907223 L 38.83399963378906 21.43300056457519 L 38.90299987792969 20.999999999999996 L 38.83399963378906 20.5669994354248 L 38.78972244262695 20.479999542236325 L 38.6349983215332 20.17600059509277 L 38.32400131225586 19.86499977111816 L 37.93299865722656 19.666000366210934 L 37.5 19.597999572753903 L 37.06700134277344 19.666000366210934 L 36.67599868774414 19.86499977111816 L 36.3650016784668 20.17600059509277 M 58.22100067138672 -18.389999389648434 L 58.24231719970703 -18.431999206542965 L 58.35599899291992 -18.656000137329098 L 58.40299987792969 -18.95000076293945 L 58.35599899291992 -19.24399948120117 L 58.22100067138672 -19.510000228881832 L 58.0099983215332 -19.721000671386715 L 57.74399948120117 -19.85600090026855 L 57.45000076293945 -19.902999877929684 L 57.15599822998047 -19.85600090026855 L 56.88999938964844 -19.721000671386715 L 56.67900085449219 -19.510000228881832 L 56.54399871826172 -19.24399948120117 L 56.49800109863281 -18.95000076293945 L 56.54399871826172 -18.656000137329098 L 56.657684326171875 -18.431999206542965 L 56.67900085449219 -18.389999389648434 L 56.88999938964844 -18.179000854492184 L 57.15599822998047 -18.044000625610348 L 57.45000076293945 -17.997999191284176 L 57.74399948120117 -18.044000625610348 L 58.0099983215332 -18.179000854492184 L 58.22100067138672 -18.389999389648434 M 56.3650016784668 20.17600059509277 L 56.21027755737305 20.479999542236325 L 56.16600036621094 20.5669994354248 L 56.097999572753906 20.999999999999996 L 56.16600036621094 21.43300056457519 L 56.3650016784668 21.823999404907223 L 56.67599868774414 22.135000228881832 L 57.06700134277344 22.33399963378906 L 57.5 22.402999877929684 L 57.93299865722656 22.33399963378906 L 58.32400131225586 22.135000228881832 L 58.6349983215332 21.823999404907223 L 58.83399963378906 21.43300056457519 L 58.90299987792969 20.999999999999996 L 58.83399963378906 20.5669994354248 L 58.78972244262695 20.479999542236325 L 58.6349983215332 20.17600059509277 L 58.32400131225586 19.86499977111816 L 57.93299865722656 19.666000366210934 L 57.5 19.597999572753903 L 57.06700134277344 19.666000366210934 L 56.67599868774414 19.86499977111816 L 56.3650016784668 20.17600059509277 M 63.399261474609375 14.33600044250488 L 63.415000915527344 14.237000465393063 L 63.34600067138672 13.803999900817868 L 63.14699935913086 13.41300010681152 L 62.83700180053711 13.10299968719482 L 62.44599914550781 12.904000282287594 L 62.01300048828125 12.835000038146969 L 61.57899856567383 12.904000282287594 L 61.439998626708984 12.97474384307861 L 61.1879997253418 13.10299968719482 L 60.87799835205078 13.41300010681152 L 60.67900085449219 13.803999900817868 L 60.61000061035156 14.237000465393063 L 60.62574005126953 14.33600044250488 L 60.67900085449219 14.670999526977536 L 60.87799835205078 15.0620002746582 L 61.1879997253418 15.371999740600582 L 61.439998626708984 15.500255584716793 L 61.57899856567383 15.571000099182125 L 62.01300048828125 15.64000034332275 L 62.44599914550781 15.571000099182125 L 62.83700180053711 15.371999740600582 L 63.14699935913086 15.0620002746582 L 63.34600067138672 14.670999526977536 L 63.399261474609375 14.33600044250488 M 61.1879997253418 -8.371999740600584 L 61.007999420166016 -8.19200038909912 L 60.87799835205078 -8.062000274658201 L 60.67900085449219 -7.6710000038146955 L 60.61000061035156 -7.237999916076658 L 60.67900085449219 -6.803999900817869 L 60.87799835205078 -6.413000106811522 L 61.1879997253418 -6.103000164031981 L 61.439998626708984 -5.974744319915771 L 61.57899856567383 -5.903999805450439 L 62.01300048828125 -5.835000038146972 L 62.44599914550781 -5.903999805450439 L 62.83700180053711 -6.103000164031981 L 63.14699935913086 -6.413000106811522 L 63.34600067138672 -6.803999900817869 L 63.415000915527344 -7.237999916076658 L 63.34600067138672 -7.6710000038146955 L 63.14699935913086 -8.062000274658201 L 63.016998291015625 -8.19200038909912 L 62.83700180053711 -8.371999740600584 L 62.44599914550781 -8.571000099182127 L 62.01300048828125 -8.640000343322752 L 61.57899856567383 -8.571000099182127 L 61.1879997253418 -8.371999740600584 M 34.5099983215332 -5.764999866485595 L 34.5099983215332 12.73999977111816 L 35 12.73999977111816 L 40 12.73999977111816 L 40.74800109863281 12.73999977111816 L 46.12300109863281 12.73999977111816 L 53.12799835205078 12.73999977111816 L 54.51499938964844 12.73999977111816 L 54.51499938964844 11.489999771118162 L 54.51499938964844 -4.514999866485595 L 54.51499938964844 -5.764999866485595 L 53.12799835205078 -5.764999866485595 L 46.12300109863281 -5.764999866485595 L 40.74800109863281 -5.764999866485595 L 40 -5.764999866485595 L 35 -5.764999866485595 L 34.5099983215332 -5.764999866485595 M 46.12300109863281 -16.997999191284176 L 53.12799835205078 -16.997999191284176 L 53.12799835205078 -21.00300025939941 L 46.12300109863281 -21.00300025939941 L 46.12300109863281 -17.997999191284176 L 46.12300109863281 -16.997999191284176 z" fill="none" stroke="rgb(255,0,0)" stroke-width="0.001mm" />
</svg>